<?xml version="1.0" encoding="UTF-8"?>
<svg id="Layer_2" data-name="Layer 2" xmlns="http://www.w3.org/2000/svg" viewBox="0 0 400 2000">
  <defs>
    <style>
      .cls-1 {
        stroke-width: 0px;
      }

      .cls-1, .cls-2 {
        fill: #662d91;
      }

      .cls-2 {
        stroke: #000;
        stroke-miterlimit: 10;
      }
    </style>
  </defs>
  <g>
    <rect class="cls-2" x="0" y="400" width="400" height="400"/>
    <g>
      <rect class="cls-1" x="82.01" y="740" width="235.99" height="40" rx="20" ry="20"/>
      <rect class="cls-1" x="82.01" y="420" width="235.99" height="40" rx="20" ry="20"/>
    </g>
    <g>
      <rect class="cls-1" x="-77.99" y="580" width="235.99" height="40" rx="20" ry="20" transform="translate(640 560) rotate(90)"/>
      <rect class="cls-1" x="242.01" y="580" width="235.99" height="40" rx="20" ry="20" transform="translate(960 240) rotate(90)"/>
    </g>
  </g>
  <g>
    <rect class="cls-2" x="0" y="1200" width="400" height="400"/>
    <g>
      <rect class="cls-1" x="82.01" y="1540" width="235.99" height="40" rx="20" ry="20"/>
      <rect class="cls-1" x="82.01" y="1220" width="235.99" height="40" rx="20" ry="20"/>
    </g>
    <g>
      <rect class="cls-1" x="-77.99" y="1380" width="235.99" height="40" rx="20" ry="20" transform="translate(1440 1360) rotate(90)"/>
      <rect class="cls-1" x="242.01" y="1380" width="235.99" height="40" rx="20" ry="20" transform="translate(1760 1040) rotate(90)"/>
    </g>
  </g>
</svg>