<?xml version="1.0" encoding="UTF-8"?>
<svg id="Layer_1" data-name="Layer 1" xmlns="http://www.w3.org/2000/svg" viewBox="0 0 200 1000">
  <defs>
    <style>
      .cls-1 {
        fill: #3a3a3a;
      }

      .cls-1, .cls-2 {
        stroke-width: 0px;
      }

      .cls-3 {
        fill: #000;
        stroke: #000;
        stroke-miterlimit: 10;
      }

      .cls-2 {
        fill: #fff;
      }
    </style>
  </defs>
  <g>
    <rect class="cls-3" y="0" width="200" height="200"/>
    <g>
      <rect class="cls-2" x="41" y="170" width="117.99" height="20" rx="10" ry="10"/>
      <rect class="cls-2" x="41" y="10" width="117.99" height="20" rx="10" ry="10"/>
    </g>
    <g>
      <rect class="cls-2" x="-39" y="90" width="117.99" height="20" rx="10" ry="10" transform="translate(120 80) rotate(90)"/>
      <rect class="cls-2" x="121" y="90" width="117.99" height="20" rx="10" ry="10" transform="translate(280 -80) rotate(90)"/>
    </g>
  </g>
  <g>
    <rect class="cls-3" y="200" width="200" height="200"/>
    <g>
      <rect class="cls-1" x="41" y="370" width="117.99" height="20" rx="10" ry="10"/>
      <rect class="cls-1" x="41" y="210" width="117.99" height="20" rx="10" ry="10"/>
    </g>
    <g>
      <rect class="cls-1" x="-39" y="290" width="117.99" height="20" rx="10" ry="10" transform="translate(320 280) rotate(90)"/>
      <rect class="cls-1" x="121" y="290" width="117.99" height="20" rx="10" ry="10" transform="translate(480 120) rotate(90)"/>
    </g>
  </g>
  <g>
    <rect class="cls-3" y="400" width="200" height="200"/>
    <g>
      <rect class="cls-2" x="41" y="570" width="117.99" height="20" rx="10" ry="10"/>
      <rect class="cls-2" x="41" y="410" width="117.99" height="20" rx="10" ry="10"/>
    </g>
    <g>
      <rect class="cls-2" x="-39" y="490" width="117.99" height="20" rx="10" ry="10" transform="translate(520 480) rotate(90)"/>
      <rect class="cls-2" x="121" y="490" width="117.99" height="20" rx="10" ry="10" transform="translate(680 320) rotate(90)"/>
    </g>
  </g>
  <g>
    <rect class="cls-3" y="600" width="200" height="200"/>
    <g>
      <rect class="cls-2" x="41" y="770" width="117.99" height="20" rx="10" ry="10"/>
      <rect class="cls-2" x="41" y="610" width="117.99" height="20" rx="10" ry="10"/>
    </g>
    <g>
      <rect class="cls-2" x="-39" y="690" width="117.99" height="20" rx="10" ry="10" transform="translate(720 680) rotate(90)"/>
      <rect class="cls-2" x="121" y="690" width="117.99" height="20" rx="10" ry="10" transform="translate(880 520) rotate(90)"/>
    </g>
  </g>
  <g>
    <rect class="cls-3" y="800" width="200" height="200"/>
    <g>
      <rect class="cls-2" x="41" y="970" width="117.99" height="20" rx="10" ry="10"/>
      <rect class="cls-2" x="41" y="810" width="117.99" height="20" rx="10" ry="10"/>
    </g>
    <g>
      <rect class="cls-2" x="-39" y="890" width="117.99" height="20" rx="10" ry="10" transform="translate(920 880) rotate(90)"/>
      <rect class="cls-2" x="121" y="890" width="117.99" height="20" rx="10" ry="10" transform="translate(1080 720) rotate(90)"/>
    </g>
  </g>
</svg>